<svg width="512" height="513" viewBox="0 0 512 513" fill="none" xmlns="http://www.w3.org/2000/svg">
<path d="M256 0.77002C114.84 0.77002 0 115.61 0 256.77C0 397.92 114.84 512.77 256 512.77C397.15 512.77 512 397.92 512 256.77C512 115.61 397.17 0.77002 256 0.77002ZM313.35 261.34H270.45V414.23H206.89C206.89 414.23 206.89 330.69 206.89 261.34H176.67V207.3H206.89V172.35C206.89 147.32 218.78 108.2 271.04 108.2L318.14 108.38V160.83C318.14 160.83 289.52 160.83 283.95 160.83C278.38 160.83 270.47 163.61 270.47 175.55V207.31H318.9L313.35 261.34Z" fill="#C32032"/>
</svg>
