<?xml version="1.0" encoding="utf-8"?>
<!-- Generator: Adobe Illustrator 28.0.0, SVG Export Plug-In . SVG Version: 6.00 Build 0)  -->
<svg version="1.1" id="Layer_1" xmlns="http://www.w3.org/2000/svg" xmlns:xlink="http://www.w3.org/1999/xlink" x="0px" y="0px"
	 viewBox="0 0 1920 1080" style="enable-background:new 0 0 1920 1080;" xml:space="preserve">
<style type="text/css">
	.st0{fill:#C32032;}
	.st1{fill:#FFFFFF;}
</style>
<g>
	<g>
		<path class="st0" d="M960,297.77c-141.16,0-256,114.84-256,256c0,141.15,114.84,256,256,256c141.15,0,256-114.85,256-256
			C1216,412.61,1101.17,297.77,960,297.77z M1017.35,558.34h-42.9v152.89h-63.56c0,0,0-83.54,0-152.89h-30.22V504.3h30.22v-34.95
			c0-25.03,11.89-64.15,64.15-64.15l47.1,0.18v52.45c0,0-28.62,0-34.19,0c-5.57,0-13.48,2.78-13.48,14.72v31.76h48.43
			L1017.35,558.34z"/>
	</g>
</g>
</svg>
