<?xml version="1.0" encoding="utf-8"?>
<!-- Generator: Adobe Illustrator 28.0.0, SVG Export Plug-In . SVG Version: 6.00 Build 0)  -->
<svg version="1.1" id="Layer_1" xmlns="http://www.w3.org/2000/svg" xmlns:xlink="http://www.w3.org/1999/xlink" x="0px" y="0px"
	 viewBox="0 0 1920 1080" style="enable-background:new 0 0 1920 1080;" xml:space="preserve">
<style type="text/css">
	.st0{fill:#C32032;}
	.st1{fill:#FFFFFF;}
</style>
<g id="Layer_2_00000049198713297220034270000011528897790891584926_">
	<g id="Color_00000080911324960945191690000015238638582456619949_">
		<g id="_02.YouTube_00000177464957176044444110000007653001571775266494_">
			<circle id="Background_00000093895391405148453300000001662507353520486811_" class="st0" cx="960" cy="540" r="256"/>
			<path id="Icon_00000069366378581440813150000011814229673403034250_" class="st1" d="M1043.77,443.7H876.23
				c-28.15,0-50.96,22.82-50.96,50.96c0,0.01,0,0.02,0,0.03v90.61c-0.02,28.15,22.78,50.98,50.93,51c0.01,0,0.02,0,0.03,0h167.55
				c28.15,0,50.96-22.82,50.96-50.96c0-0.01,0-0.02,0-0.03v-90.61c0.02-28.15-22.78-50.98-50.93-51
				C1043.8,443.7,1043.78,443.7,1043.77,443.7L1043.77,443.7z M924.5,573.89v-67.78c0-3.29,3.56-5.33,6.4-3.68l58.27,33.89
				c2.82,1.64,2.82,5.72,0,7.37l-58.27,33.89C928.06,579.23,924.5,577.18,924.5,573.89z"/>
		</g>
	</g>
</g>
</svg>
