<svg width="504" height="504" viewBox="0 0 504 504" fill="none" xmlns="http://www.w3.org/2000/svg">
<path d="M252 0.220215C113.09 0.220215 0.450195 112.87 0.450195 251.77C0.450195 390.67 113.09 503.32 252 503.32C390.91 503.32 503.55 390.67 503.55 251.77C503.55 112.87 390.91 0.220215 252 0.220215Z" fill="#C32032"/>
<path d="M252.9 202.19C220.66 202.19 194.42 228.42 194.42 260.66C194.42 292.9 220.65 319.13 252.9 319.13C285.15 319.13 311.38 292.9 311.38 260.66C311.38 228.42 285.14 202.19 252.9 202.19Z" fill="white"/>
<path d="M325.19 107.07H180.6C135.77 107.07 99.3096 143.54 99.3096 188.36V332.95C99.3096 377.78 135.78 414.24 180.6 414.24H325.19C370.02 414.24 406.48 377.77 406.48 332.95V188.37C406.48 143.54 370.01 107.07 325.19 107.07ZM252.9 337.14C210.73 337.14 176.42 302.83 176.42 260.67C176.42 218.51 210.73 184.2 252.9 184.2C295.07 184.2 329.38 218.51 329.38 260.67C329.38 302.83 295.06 337.14 252.9 337.14ZM344.81 181.48C343.14 183.15 340.81 184.11 338.44 184.11C336.08 184.11 333.75 183.15 332.07 181.48C330.4 179.8 329.44 177.48 329.44 175.12C329.44 172.75 330.39 170.43 332.07 168.75C333.75 167.08 336.07 166.12 338.44 166.12C340.81 166.12 343.13 167.08 344.81 168.75C346.48 170.43 347.44 172.75 347.44 175.12C347.45 177.48 346.49 179.8 344.81 181.48Z" fill="white"/>
</svg>
