<svg width="1200" height="240" viewBox="0 0 1200 240" fill="none" xmlns="http://www.w3.org/2000/svg">
<path d="M1079.8 83.3661C1076.91 81.3431 1080.33 77.2231 1079.8 74.6741C1080.67 70.2551 1093.95 71.5961 1097.71 71.5961C1100.94 72.4421 1104.34 71.5961 1107.93 72.4421C1109.3 71.7781 1112.2 72.6351 1112.36 70.5791C1111.34 67.8551 1108.62 68.0301 1106.4 67.5041C1097.18 67.8541 1087.82 67.6851 1078.28 68.0291H1073.49C1063.28 68.1921 1053.05 68.3731 1043.36 67.1741C1041.46 68.0291 1037.88 68.1921 1038.22 71.2741C1038.54 71.4495 1038.88 71.5575 1039.24 71.5911C1040.28 72.2771 1042.31 71.9451 1043.01 71.9451C1050.66 73.4761 1064.64 71.4341 1071.98 72.4371C1072.65 73.8231 1073.49 75.1951 1073.34 76.8801C1073.49 78.7531 1073.49 82.3351 1071.98 83.3611C1067.03 82.8511 1050.16 82.0021 1045.04 84.3791C1040.77 83.7211 1035.49 84.0501 1032.1 85.5791C1031.91 85.9445 1031.8 86.3462 1031.77 86.7579C1031.74 87.1697 1031.81 87.5824 1031.95 87.9691C1032.09 88.3558 1032.32 88.708 1032.61 89.0026C1032.89 89.2972 1033.24 89.5277 1033.63 89.6791C1037.88 90.1791 1049.13 87.7851 1054.75 88.2991C1059.18 87.1241 1067.53 88.2991 1073.49 88.4651C1075.33 88.511 1077.16 88.3367 1078.96 87.9461C1083.91 87.1241 1108.79 88.8101 1112.7 87.9461C1113.14 87.6691 1113.48 87.2539 1113.67 86.7643C1113.85 86.2748 1113.87 85.7381 1113.72 85.2371C1112.88 83.1951 1085.59 82.5221 1079.8 83.3611" fill="#C41B31"/>
<path d="M1165.93 79.505C1165.95 80.5826 1166.15 81.6492 1166.51 82.667C1166.9 83.86 1167.09 84.848 1167.51 86.046C1167.71 87.028 1168.1 87.831 1168.28 88.637C1169.02 89.2419 1169.82 89.7655 1170.67 90.199C1171.73 90.7061 1172.86 91.0436 1174.02 91.199C1175.22 91.399 1176.42 91.399 1177.41 91.599C1178.34 91.6027 1179.27 91.7318 1180.17 91.983V93.551C1180.22 93.8885 1180.29 94.2225 1180.38 94.551C1180.58 94.967 1180.58 95.146 1180.79 95.351C1181.19 95.751 1181.56 95.951 1181.97 96.342L1182.37 96.149L1184.56 95.349C1184.74 93.761 1184.96 92.377 1185.14 90.807C1185.5 91.0169 1185.9 91.1488 1186.32 91.194C1186.97 91.3911 1187.67 91.3911 1188.32 91.194C1189.12 91.194 1189.89 90.994 1190.5 90.994C1191.01 90.8484 1191.54 90.7843 1192.07 90.804C1193.06 90.804 1194.08 89.995 1195.25 88.804C1196.43 87.635 1197.43 85.46 1198.22 82.661C1199.16 80.2684 1199.56 77.6997 1199.41 75.134C1199.42 73.2799 1199.29 71.4276 1199.01 69.595C1198.61 69.184 1198.43 68.795 1198.22 68.595C1198.15 68.4906 1198.06 68.4011 1197.96 68.3323C1197.86 68.2634 1197.74 68.2167 1197.62 68.195C1197.47 68.1018 1197.3 68.0524 1197.13 68.0524C1196.95 68.0524 1196.78 68.1018 1196.64 68.195C1196.43 68.195 1196.04 68.385 1195.84 68.385C1195.64 68.385 1195.44 68.59 1195.25 68.59C1194.95 69.2968 1194.69 70.0195 1194.47 70.755C1194.26 71.555 1194.07 72.155 1193.86 72.96C1194.08 74.147 1194.26 75.129 1194.47 76.33C1194.28 77.7685 1193.87 79.1695 1193.25 80.486C1190.29 87.016 1187.53 84.835 1184.55 83.848V68.59C1184.28 68.3347 1183.91 68.192 1183.54 68.19C1183.35 68 1182.96 68 1182.36 68V68.19C1181.79 68.19 1181.36 68.38 1180.98 68.38C1180.57 68.38 1180.38 68.585 1180.16 68.585C1179.98 69.174 1179.98 70.173 1179.79 71.37C1179.79 72.36 1179.58 73.726 1179.58 75.347C1179.35 76.7802 1179.23 78.2272 1179.2 79.678C1179 80.878 1179 83.843 1178.8 84.643C1176.2 86.22 1172.44 86.821 1170.86 79.871C1170.86 79.303 1170.66 78.904 1170.66 78.503V70.75C1170.12 69.9945 1169.52 69.2716 1168.89 68.585H1165.72V72.155C1165.53 72.8005 1165.46 73.4726 1165.51 74.142V76.105C1165.51 76.51 1165.72 77.096 1165.72 77.519C1165.7 78.1817 1165.77 78.8437 1165.92 79.489" fill="#C41B31"/>
<path d="M1130.23 113.406C1131.83 113.416 1133.4 113.006 1134.79 112.219C1135.99 111.793 1136.96 111.597 1137.96 111.219V111.019C1139.86 110.412 1141.72 109.682 1143.52 108.835C1145.68 107.773 1147.93 106.912 1150.24 106.262C1154.22 104.679 1158.38 101.897 1162.94 101.293C1166.3 100.915 1173.43 104.461 1176.42 105.848C1178.41 106.86 1180.38 107.835 1182.36 108.835C1185.14 110.028 1187.72 111.421 1190.49 112.81C1192.02 113.371 1193.62 113.695 1195.24 113.771C1196.63 113.817 1198.02 113.754 1199.4 113.584C1199.4 106.656 1199.22 108.836 1191.29 105.674C1188.39 104.128 1185.41 102.735 1182.36 101.503C1182.09 101.245 1181.74 101.102 1181.36 101.103C1177.81 99.7291 1174.65 98.5411 1171.87 97.5391C1169.07 96.3491 1164.73 95.3581 1162.94 94.3621C1160.95 94.9781 1159.57 95.7541 1156.41 96.9561C1152.97 98.1667 1149.59 99.5508 1146.3 101.103C1145.5 101.503 1144.51 101.903 1143.52 102.287C1140.52 103.308 1137.96 104.468 1135.59 105.287C1133.12 106.271 1130.6 107.124 1128.05 107.842C1127.61 108.551 1127.22 109.283 1126.87 110.035C1126.67 112.995 1125.49 112.626 1130.24 113.411" fill="#C41B31"/>
<path d="M1197.61 172.657C1191.68 170.268 1188.31 167.514 1185.73 160.966C1184.96 159.169 1184.03 157.443 1182.96 155.807C1182.76 155.427 1182.57 155.028 1182.36 154.623C1181.43 152.698 1180.63 150.707 1179.98 148.667C1179.2 145.903 1178.61 143.729 1178.01 141.757C1177.61 139.757 1177.2 138.172 1177 137C1176.71 136.824 1176.44 136.618 1176.2 136.384C1175.82 136.176 1175.62 136.176 1175.22 135.995H1173.64C1173.26 137.001 1172.66 137.976 1172.24 138.964V142.144C1172.72 143.771 1173.12 145.422 1173.43 147.091C1174.02 149.263 1175.22 152.047 1176.2 154.82C1176.98 157.127 1177.92 159.378 1179 161.558C1180.17 163.558 1181.19 165.327 1182.17 166.707L1182.37 166.907C1183.36 167.907 1184.36 169.094 1185.56 170.498C1186.9 172.179 1188.5 173.643 1190.29 174.838C1191.64 176.114 1193.27 177.067 1195.04 177.626C1196.2 177.968 1197.42 178.033 1198.61 177.813C1198.6 177.703 1198.61 177.592 1198.65 177.488C1198.68 177.384 1198.75 177.29 1198.83 177.213C1198.83 177.029 1199.01 176.836 1199.01 176.428C1199.23 176.241 1199.41 176.039 1199.61 176.039C1199.81 175.828 1199.81 175.828 1200.01 175.828C1200.01 175.037 1198.43 173.065 1197.62 172.654" fill="#C41B31"/>
<path d="M1133.59 90.0031C1135.01 90.6787 1136.58 91.0206 1138.15 91.0031C1139.2 90.8562 1140.26 90.7926 1141.32 90.8131C1141.53 92.7881 1141.73 94.558 1141.93 96.346H1143.69C1144.3 96.153 1144.5 95.9561 1144.89 95.9561C1145.19 95.8047 1145.47 95.6016 1145.69 95.3561V92.9941C1145.86 92.6011 1145.86 91.988 1146.07 91.605C1146.07 91.205 1146.28 91.0051 1146.28 90.8141C1147.19 90.6306 1148.12 90.5634 1149.05 90.614C1150.39 90.566 1151.73 90.3623 1153.02 90.0071C1154.48 89.5598 1155.83 88.8212 1156.99 87.8361C1158.16 86.6747 1159.22 85.4088 1160.15 84.054V76.531C1160.2 75.1444 1160.13 73.7565 1159.95 72.381C1159.86 71.4359 1159.67 70.5041 1159.36 69.605C1159.21 69.2466 1159.01 68.9102 1158.77 68.605H1156.99C1156.54 68.8685 1156.14 69.2066 1155.8 69.605V78.5241C1154.99 79.6991 1154.4 80.8951 1153.82 81.8921C1149.84 86.8421 1150.44 82.8741 1146.28 83.0761V79.699C1146.11 78.2628 1146.03 76.815 1146.07 75.368C1145.87 73.746 1145.87 72.3811 1145.7 71.3911V68.6061C1145.34 68.3558 1144.93 68.2165 1144.5 68.2061C1144.2 68.0343 1143.85 67.9674 1143.51 68.0161C1143.51 68.0161 1143.3 68.0161 1143.3 68.2061C1142.9 68.2357 1142.51 68.2993 1142.12 68.3961C1141.72 68.3961 1141.52 68.601 1141.31 68.601C1141.33 69.4658 1141.27 70.3304 1141.13 71.1841C1141.15 72.3716 1141.08 73.5592 1140.92 74.7361C1140.92 75.9441 1140.72 77.113 1140.72 78.113V80.8911C1140.92 81.4991 1141.12 82.2691 1141.31 83.0721C1136.75 85.4721 1134.57 85.642 1132.59 79.505C1132 78.2484 1131.6 76.9123 1131.39 75.539C1131.37 74.1467 1131.24 72.7582 1131 71.386C1130.86 70.4026 1130.53 69.4566 1130.02 68.601C1129.83 68.601 1129.83 68.3961 1129.64 68.3961C1129.42 68.3961 1129.02 68.2061 1128.84 68.2061C1128.44 68.0161 1128.23 68.0161 1128.03 68.2061C1127.84 68.2061 1127.64 68.3961 1127.43 68.6061C1127.43 69.0061 1127.24 69.787 1127.24 70.373C1127.09 71.2303 1127.03 72.1024 1127.06 72.9731C1126.9 73.8181 1126.83 74.6792 1126.85 75.54V80.8921C1127.54 82.7509 1128.4 84.5408 1129.42 86.238C1130.44 87.8404 1131.88 89.1404 1133.57 90.0041" fill="#C41B31"/>
<path d="M1093.28 119.842C1086.81 119.842 1080.67 119.842 1074.18 120.342C1074 120.342 1073.85 120.182 1073.49 120.182C1070.61 119.843 1058.33 120.342 1056.12 121.698C1054.42 120.523 1054.94 117.787 1054.25 115.745C1053.9 112.845 1057.15 113.866 1058.67 113.202C1060.54 114.395 1067.04 114.211 1073.49 113.866C1080.48 113.358 1087.48 112.332 1088.68 112.332C1090.02 110.976 1092.26 111.674 1093.29 113.202C1093.29 115.407 1094.98 117.787 1093.29 119.843L1093.28 119.842ZM1089.35 134.835C1085.94 134.835 1083.39 137.405 1079.99 137.725C1079.65 138.079 1076.58 138.417 1073.49 138.417C1070.44 138.417 1067.38 138.242 1066.86 137.725C1063.28 139.09 1060.72 136.182 1058.33 133.636C1058 131.603 1055.77 128.2 1056.12 125.971C1060.9 124.108 1067.88 125.645 1073.49 125.116C1074.71 125.013 1075.91 124.781 1077.07 124.424C1080.33 126.143 1092.76 124.593 1093.94 124.424C1092.76 127.659 1094.14 134.678 1089.35 134.835H1089.35ZM1059.18 99.552C1063.63 99.724 1068.37 98.688 1073.49 99.052H1073.85C1079.65 99.381 1086.12 98.877 1091.75 99.218C1092.08 99.8183 1092.48 100.385 1092.92 100.909C1093.46 102.972 1093.1 106.019 1093.29 108.245C1090.89 109.275 1088.33 107.898 1086.12 107.719C1083.91 107.719 1078.45 108.245 1073.49 108.749C1069.59 109.103 1066.02 109.275 1065.15 108.937C1063.11 109.946 1060.72 108.602 1058.33 109.786C1057.15 108.75 1055.28 110.973 1054.25 109.276C1052.71 104.995 1056.45 101.784 1059.18 99.552ZM1095.14 96.49C1094.03 95.2723 1092.57 94.4121 1090.97 94.0172C1089.36 93.6222 1087.67 93.7102 1086.12 94.27C1081.92 93.8966 1077.7 93.7804 1073.49 93.922H1067.38C1064.81 94.783 1057.32 93.922 1053.9 94.958C1049.48 99.899 1047.24 107.574 1049.32 114.209C1047.24 120.693 1051 135.695 1055.61 140.809C1056.45 140.966 1057.83 143.358 1061.41 143.358C1062.77 143.878 1063.63 144.21 1063.45 147.445C1061.41 152.398 1060.72 157.845 1059.36 162.445C1057.83 165.336 1056.63 170.104 1054.76 172.158C1054.42 173.864 1054.08 176.244 1055.28 177.758C1056.29 177.939 1056.81 176.939 1057.49 176.939C1062.41 169.268 1064.47 160.225 1066.34 151.361C1067.38 148.788 1066.51 147.625 1068.58 145.561C1069.08 144.715 1071.12 144.045 1073.49 143.879C1076.58 143.532 1080.33 143.879 1082.2 145.561C1084.41 152.927 1084.74 160.747 1088.33 167.57C1091.04 170.98 1090.73 176.77 1095.49 177.944C1096.53 177.444 1094.81 176.944 1095.49 176.25C1097.03 170.793 1092.92 166.709 1091.22 162.284C1089.87 157.515 1089.02 152.215 1087.48 147.63C1087.14 145.561 1086.28 142.674 1089.03 141.49C1091.42 140.475 1094.47 139.621 1095.49 136.703C1098.04 133.637 1097.71 128.203 1098.72 124.426C1100.45 120.696 1100.45 115.921 1100.25 112.01C1099.59 106.721 1101.27 98.69 1095.15 96.492" fill="#C41B31"/>
<path d="M1150.25 135.994H1148.68C1148.4 135.987 1148.12 136.049 1147.87 136.175C1147.52 136.343 1147.23 136.637 1147.07 137C1146.89 137.384 1146.67 137.592 1146.67 137.975C1146.63 138.844 1146.5 139.706 1146.29 140.549C1145.74 144.207 1144.81 147.798 1143.52 151.265C1142.83 153.35 1141.89 155.345 1140.73 157.209C1139.4 159.852 1137.74 162.318 1135.79 164.548C1133.76 166.478 1131.49 168.137 1129.04 169.483C1127.7 170.299 1126.3 171.028 1124.87 171.667C1124.65 172.029 1124.39 172.362 1124.09 172.657V176.84C1124.73 177.204 1125.39 177.528 1126.08 177.813C1126.69 177.854 1127.31 177.719 1127.85 177.424C1128.8 177.161 1129.67 176.689 1130.42 176.044C1131.62 175.444 1132.42 174.844 1133.39 174.253C1134.19 173.653 1134.79 173.069 1135.38 172.653C1136.77 171.663 1138.56 168.893 1140.33 166.903C1141.46 165.769 1142.52 164.578 1143.52 163.333C1144.46 162.078 1145.31 160.761 1146.08 159.392C1147.68 156.152 1148.94 152.758 1149.85 149.262C1150.45 146.284 1151.05 143.931 1151.25 142.143V137C1151.05 136.773 1151.05 136.58 1150.85 136.384C1150.65 136.188 1150.45 136.176 1150.24 135.994" fill="#C41B31"/>
<path d="M1182.36 131.821C1184.15 131.821 1185.92 131.631 1187.33 131.631C1189.39 131.5 1191.43 131.24 1193.46 130.852C1205.14 126.868 1193.25 125.292 1187.72 127.27H1179.37C1176.02 127.27 1173.43 127.08 1171.07 127.08C1169.29 126.919 1167.51 126.849 1165.72 126.869C1165.72 126.498 1165.92 125.688 1165.92 124.894C1166.1 123.9 1165.51 119.726 1165.51 118.572C1165.72 117.581 1165.86 116.576 1165.92 115.564C1166.06 114.976 1166.12 114.375 1166.1 113.773C1166.1 111.423 1166.5 109.632 1165.92 108.654C1165.11 107.065 1162.93 106.06 1161.94 106.265C1161.16 106.446 1160.16 108.023 1159.57 109.43C1159.18 110.816 1159.57 112.813 1159.75 114.794L1160.55 126.869C1155.81 126.869 1149.25 127.878 1143.52 127.66C1142.6 127.507 1141.66 127.446 1140.73 127.476C1138.15 127.076 1133.02 126.498 1130.42 127.076C1127.25 127.876 1124.67 129.649 1130.61 131.425C1131.61 131.425 1132.6 131.818 1134.39 131.818H1159.75C1159.56 145.125 1159.95 158.396 1159.75 171.664V173.851C1159.75 174.437 1159.95 175.038 1159.95 175.618C1160.15 176.041 1160.15 176.43 1160.35 176.838C1160.58 177.076 1160.85 177.273 1161.15 177.421C1161.35 177.621 1161.52 177.621 1161.93 177.811H1163.52C1164.23 177.605 1164.9 177.276 1165.5 176.838V131.818C1167.15 131.643 1168.8 131.58 1170.46 131.628H1179C1180.11 131.781 1181.24 131.845 1182.36 131.818" fill="#C41B31"/>
<path d="M946.426 146.886C946.426 152.223 943.418 157.074 937.401 161.441C931.384 165.818 925.086 168.004 918.507 168.001C913.53 168.001 909.605 166.383 906.734 163.148C903.825 159.91 902.376 155.538 902.385 150.031C902.385 136.772 917.065 124.395 946.426 112.9V146.886ZM984.686 162.217C984.197 162.217 982.877 163.024 980.706 164.63C979.047 166.039 976.983 166.883 974.813 167.04C969.522 167.04 966.877 162.696 966.879 154.008V92.748C966.879 74.252 953.084 65.008 925.493 65.016C912.497 65.016 902.312 66.942 894.937 70.794C887.537 74.6387 883.842 79.3693 883.853 84.986C883.853 90.9267 886.661 93.8933 892.276 93.886C896.133 93.886 898.783 92.7637 900.225 90.519C901.025 89.229 901.814 86.197 902.625 81.368C903.588 73.6694 910.488 69.8243 923.325 69.833C938.725 69.833 946.425 76.1093 946.425 88.662V107.762C902.148 123.892 880.013 139.685 880.02 155.142C880.02 161.919 882.223 167.282 886.628 171.231C891.044 175.176 897.009 177.154 904.565 177.154C920.108 177.154 933.821 171.457 945.704 160.063C946.642 164.967 949.288 169.379 953.173 172.516C957.059 175.619 961.91 177.261 966.882 177.155C971.881 177.192 976.748 175.556 980.709 172.507C984.802 169.408 986.848 166.712 986.849 164.419C986.894 164.123 986.869 163.821 986.777 163.537C986.685 163.252 986.528 162.993 986.319 162.779C986.109 162.566 985.853 162.404 985.57 162.307C985.287 162.21 984.986 162.18 984.689 162.219" fill="#382B20"/>
<path d="M712.561 156.005C712.295 156.31 712.048 156.573 711.812 156.866C708.016 160.904 703.432 164.122 698.344 166.32C693.256 168.519 687.772 169.651 682.229 169.648C671.496 169.327 663.042 165.161 656.868 157.148C650.475 148.779 647.27 136.956 647.255 121.681C647.255 105.287 650.388 92.5827 656.655 83.568C662.888 74.568 671.33 70.068 681.913 70.068C687.204 70.068 690.904 70.9531 692.985 72.7171C694.278 73.8341 695.869 76.731 697.793 81.367C699.729 86.03 702.924 88.3591 707.428 88.3591C712.541 88.3591 715.117 85.789 715.117 80.642C715.117 76.166 712.299 72.3911 706.7 69.3421C701.085 66.2881 693.621 64.7637 684.308 64.7691C667.313 64.7691 653.437 69.6731 642.68 79.4811C629.684 91.2144 623.194 105.44 623.209 122.157C623.209 139.542 628.099 153.046 637.878 162.671C647.657 172.32 661.213 177.146 678.546 177.147C680.398 177.147 682.146 177.069 683.862 176.963L683.85 176.975C709.25 176.018 715.118 156.915 715.118 156.915L713.478 154.9C713.161 155.287 712.853 155.637 712.566 156.008" fill="#382B20"/>
<path d="M858.709 168.417C856.363 168.012 854.065 167.369 851.85 166.496C849.135 165.215 847.499 163.736 846.942 162.059C846.353 160.376 846.087 157.278 846.087 152.784V96.7491C846.087 86.3324 843.065 78.4757 837.02 73.179C830.992 67.8997 822.102 65.2581 810.351 65.2541C793.77 65.2541 780.895 71.9107 771.728 85.224V4.13403C771.728 1.57003 770.858 0.290039 769.106 0.290039C765.274 1.25004 761.45 2.12304 757.617 2.94104C755.929 3.28804 753.99 3.65105 751.836 4.04605L731.815 7.22305C731.737 7.24705 730.492 7.51006 731.229 8.32306L735.856 13.312C746.001 12.08 749.109 16.027 750.056 19.032C750.43 21.4235 750.598 23.8428 750.556 26.263V152.787C750.556 157.124 750.224 160.211 749.586 162.062C748.934 163.895 747.33 165.374 744.775 166.499C742.618 167.411 740.357 168.056 738.043 168.42C734.818 169.081 733.202 170.036 733.202 171.32C733.202 173.084 734.516 173.957 737.071 173.957C740.928 173.657 744.416 173.344 747.53 173.039C750.68 172.749 755.187 172.586 761.13 172.586C762.586 172.586 766.83 172.812 773.888 173.278C780.946 173.744 784.803 173.958 785.447 173.958C787.857 173.958 789.068 173.245 789.068 171.808C789.068 170.208 787.492 169.087 784.36 168.425C782.015 168.025 779.718 167.381 777.507 166.504C774.756 165.224 773.116 163.744 772.563 162.067C772.01 160.39 771.726 157.286 771.726 152.792V107.352C771.726 97.4247 774.736 89.1654 780.757 82.574C786.761 76.014 793.937 72.731 802.285 72.725C817.362 72.725 824.907 81.219 824.919 98.207V152.792C824.919 157.129 824.578 160.216 823.928 162.067C823.303 163.9 821.693 165.383 819.138 166.504C816.975 167.418 814.708 168.063 812.388 168.425C809.188 169.086 807.588 170.041 807.588 171.325C807.588 173.089 808.788 173.962 811.197 173.962C815.042 173.662 818.569 173.349 821.774 173.044C824.979 172.739 829.548 172.591 835.489 172.591C837.099 172.591 841.345 172.817 848.252 173.283C855.132 173.745 858.926 173.963 859.545 173.963C862.109 173.963 863.402 173.25 863.402 171.813C863.402 170.213 861.855 169.092 858.702 168.43" fill="#382B20"/>
<path d="M238.448 172.342C227.715 172.342 219.46 167.915 213.684 159.062C207.908 150.209 205.015 137.671 205.005 121.448C205.005 105.353 208.134 92.6906 214.391 83.46C220.648 74.2293 228.667 69.6033 238.447 69.582C249.36 69.582 257.865 73.9633 263.962 82.726C270.059 91.4886 273.104 104.072 273.099 120.476C273.1 155.049 261.55 172.337 238.448 172.342ZM261.43 68.735C254.742 66.0589 247.596 64.7121 240.393 64.77C224.018 64.77 210.142 70.152 198.764 80.916C187.365 91.7013 181.665 105.049 181.665 120.959C181.665 137.35 187.161 150.812 198.154 161.346C209.147 171.88 222.982 177.147 239.661 177.146C255.207 177.146 268.522 171.517 279.605 160.26C284.93 154.839 289.178 148.457 292.124 141.453C295.008 134.583 296.481 127.204 296.456 119.753C296.456 105.292 290.681 92.272 279.131 80.692C274.091 75.5621 268.072 71.497 261.431 68.738" fill="#382B20"/>
<path d="M434.914 168.486C432.573 168.07 430.277 167.427 428.061 166.565C425.334 165.287 423.694 163.792 423.132 162.104C422.57 160.416 422.295 157.332 422.295 152.844V96.7791C422.295 86.3444 419.245 78.4024 413.144 72.9531C407.04 67.5164 398.219 64.7891 386.681 64.7711C369.681 64.7711 356.445 72.3881 346.974 87.6221C346.645 83.4601 346.261 78.4861 345.787 72.7221C345.313 66.9581 343.854 64.0481 341.447 64.0481C338.948 64.6834 336.495 65.4875 334.105 66.4551C329.044 68.244 323.856 69.6503 318.584 70.6621C312.64 71.8761 309.67 73.1204 309.674 74.3951C309.674 75.5251 311.274 76.2951 314.494 76.6951C316.806 76.873 319.077 77.3982 321.232 78.2531C322.352 78.8057 323.346 79.5816 324.155 80.5332C324.963 81.4848 325.568 82.5918 325.932 83.7861C326.639 86.2051 327.016 89.9721 327.016 95.1091V152.853C327.016 157.193 326.702 160.271 326.041 162.113C325.41 163.947 323.794 165.442 321.236 166.574C319.073 167.476 316.811 168.12 314.498 168.495C311.275 169.126 309.678 170.09 309.678 171.379C309.678 173.152 310.878 174.025 313.293 174.025C317.141 173.696 320.672 173.391 323.87 173.065C327.087 172.751 331.66 172.592 337.591 172.588C339.191 172.588 343.465 172.826 350.349 173.31C357.233 173.794 361.013 174.026 361.666 174.026C364.224 174.026 365.502 173.31 365.502 171.858C365.502 170.258 363.94 169.127 360.824 168.496C358.477 168.082 356.177 167.439 353.956 166.575C351.244 165.297 349.592 163.802 349.036 162.114C348.48 160.426 348.178 157.342 348.178 152.854V107.366C348.178 97.4261 351.148 89.1678 357.088 82.5911C363.014 76.0158 370.15 72.7277 378.496 72.7271C393.576 72.7271 401.121 81.2291 401.13 98.2331V152.854C401.13 157.194 400.801 160.272 400.17 162.114C399.509 163.947 397.908 165.442 395.35 166.575C393.186 167.478 390.924 168.123 388.609 168.496C385.402 169.127 383.8 170.089 383.804 171.38C383.804 173.153 385.085 174.026 387.649 174.026C391.506 173.697 394.988 173.391 398.123 173.065C401.258 172.739 405.779 172.588 411.714 172.588C413.152 172.588 417.404 172.829 424.471 173.31C431.529 173.787 435.362 174.026 436.017 174.026C438.417 174.026 439.617 173.31 439.617 171.857C439.617 170.257 438.065 169.127 434.917 168.495" fill="#382B20"/>
<path d="M519.749 128.303C515.412 134.068 509.394 136.952 501.697 136.953C498.263 137.053 494.86 136.279 491.808 134.703C488.755 133.127 486.153 130.801 484.246 127.944C479.993 121.925 477.872 113.619 477.882 103.027C477.882 92.9303 480.087 84.8303 484.496 78.727C488.905 72.6237 494.481 69.5763 501.222 69.585C509.069 69.585 515.202 72.5147 519.622 78.374C524.047 84.2213 526.252 92.5983 526.239 103.505C526.24 114.256 524.076 122.522 519.749 128.303ZM562.564 53.244L551.794 46.162C548.62 48.8013 545.605 51.1207 542.748 53.12C539.891 55.1193 536.967 56.974 533.974 58.684C530.884 60.502 527.684 62.1823 524.374 63.725C524.274 63.77 524.169 63.819 524.048 63.879C520.126 65.3919 515.9 65.95 511.719 65.507C510.87 65.368 509.985 65.244 509.119 65.145C509.098 65.145 509.086 65.145 509.074 65.133V65.145C506.947 64.8934 504.807 64.7691 502.665 64.773C489.681 64.773 478.928 68.4697 470.406 75.863C466.324 79.2659 463.06 83.5428 460.854 88.3775C458.648 93.2121 457.556 98.4809 457.661 103.794C457.53 111.451 459.99 118.927 464.641 125.011C469.298 131.109 475.798 135.687 484.141 138.744C469.208 141.616 461.75 148.819 461.767 160.354C461.767 168.195 465.134 173.839 471.867 177.288C478.6 180.713 488.788 182.431 502.429 182.441C517.515 182.441 528.179 184.006 534.422 187.135C540.689 190.268 543.818 196.486 543.809 205.788C543.809 214.435 540.609 221.27 534.184 226.223C527.769 231.21 518.788 233.7 507.243 233.695C495.204 233.695 485.817 231.449 479.082 226.957C472.347 222.465 468.974 216.45 468.964 208.911C468.964 203.632 470.014 199.379 472.114 196.154C473.917 193.194 476.493 190.78 479.565 189.174C479.565 186.939 476.829 185.806 471.389 185.806C466.726 185.806 462.55 187.811 458.861 191.822C455.277 195.585 453.297 200.594 453.34 205.791C453.34 215.73 458.029 223.868 467.408 230.204C476.783 236.553 489.256 239.723 504.829 239.715C521.984 239.715 535.418 235.98 545.129 228.51C554.845 221.071 559.7 210.93 559.695 198.087C559.695 184.762 555.443 175.174 546.938 169.325C538.433 163.476 524.877 160.551 506.27 160.551C484.295 160.551 473.309 157.934 473.313 152.701C473.313 148.594 475.718 145.745 480.528 144.154C485.338 142.563 492.794 141.768 502.896 141.768C517.511 141.768 528.501 138.55 535.868 132.115C543.235 125.68 546.924 116.501 546.937 104.58C546.937 96.314 544.122 88.271 538.553 80.457C537.288 78.7588 535.841 77.2042 534.237 75.821L534.18 75.854C531.083 73.2326 527.651 71.0346 523.975 69.318C525.083 69.055 526.162 68.818 527.158 68.572C530.707 67.69 534.011 66.814 537.11 65.902C540.278 65.008 543.443 63.969 546.633 62.779C549.807 61.6043 553.392 60.1537 557.388 58.427L561.052 57.884C562.87 57.612 563.903 57.011 564.184 56.117C564.459 55.205 563.903 54.257 562.568 53.248" fill="#382B20"/>
<path d="M166.031 105.683C164.578 105.683 155.274 106.162 138.121 107.121C131.697 107.121 126.201 106.958 121.633 106.632C117.073 106.327 113.333 106.001 110.449 105.683C106.749 105.683 104.916 106.565 104.916 108.317C104.916 109.755 106.951 110.83 111.049 111.539C113.526 111.903 115.977 112.429 118.386 113.113C124.009 115.18 126.818 121.253 126.813 131.334C126.813 144.934 123.446 154.924 116.713 161.304C109.953 167.691 99.3643 170.884 84.947 170.881C67.7656 170.881 54.251 164.194 44.403 150.821C34.5363 137.454 29.6 118.676 29.594 94.4871C29.594 67.7397 34.61 47.5151 44.642 33.8131C54.6487 20.1131 69.369 13.2634 88.803 13.2641C111.252 13.2641 126.485 24.4974 134.503 46.9641C135.418 49.2641 136.14 51.6363 136.661 54.0561C137.308 56.8681 138.202 58.2691 139.323 58.2691C140.771 58.2691 141.481 57.3111 141.481 55.3881L142.523 29.8521L143.364 11.8601L138.81 10.4221C138.131 15.1821 137.023 17.6981 136.018 19.0221C135.718 19.3601 134.356 20.6221 131.641 19.6811C124.991 17.2011 118.406 14.6641 111.887 12.0701C103.209 9.56917 94.2115 8.35325 85.181 8.46106C59.9963 8.46106 39.5033 16.7477 23.702 33.3211C7.89399 49.9151 -0.0073448 71.4201 -0.00201146 97.8361C-0.00201146 120.591 7.21732 139.257 21.656 153.836C36.8893 169.369 56.3003 177.139 79.889 177.144C91.0342 177.162 102.073 174.976 112.37 170.711C119.903 167.078 127.443 163.352 134.989 159.533C137.648 158.338 140.438 157.458 143.301 156.911C146.667 156.259 150.089 155.942 153.518 155.963C153.038 152.272 152.71 149.218 152.553 146.82C152.396 144.422 152.315 141.042 152.315 136.714V134.062C152.315 127.967 152.673 123.516 153.389 120.709C153.955 118.136 155.51 115.89 157.719 114.454C160.227 112.959 162.952 111.864 165.797 111.207C168.997 110.407 170.605 109.365 170.605 108.072C170.605 106.472 169.077 105.672 166.033 105.672" fill="#382B20"/>
</svg>
