<svg width="512" height="512" viewBox="0 0 512 512" fill="none" xmlns="http://www.w3.org/2000/svg">
<path d="M256 512C397.385 512 512 397.385 512 256C512 114.615 397.385 0 256 0C114.615 0 0 114.615 0 256C0 397.385 114.615 512 256 512Z" fill="#C32032"/>
<path d="M339.77 159.7H172.23C144.08 159.7 121.27 182.52 121.27 210.66C121.27 210.67 121.27 210.68 121.27 210.69V301.3C121.25 329.45 144.05 352.28 172.2 352.3C172.21 352.3 172.22 352.3 172.23 352.3H339.78C367.93 352.3 390.74 329.48 390.74 301.34C390.74 301.33 390.74 301.32 390.74 301.31V210.7C390.759 182.55 367.96 159.72 339.81 159.7C339.8 159.7 339.78 159.7 339.77 159.7ZM220.5 289.89V222.11C220.5 218.82 224.06 216.78 226.9 218.43L285.17 252.32C287.99 253.96 287.99 258.04 285.17 259.69L226.9 293.58C224.06 295.23 220.5 293.18 220.5 289.89Z" fill="white"/>
</svg>
