<?xml version="1.0" encoding="utf-8"?>
<!-- Generator: Adobe Illustrator 28.0.0, SVG Export Plug-In . SVG Version: 6.00 Build 0)  -->
<svg version="1.1" id="Layer_1" xmlns="http://www.w3.org/2000/svg" xmlns:xlink="http://www.w3.org/1999/xlink" x="0px" y="0px"
	 viewBox="0 0 1920 1080" style="enable-background:new 0 0 1920 1080;" xml:space="preserve">
<style type="text/css">
	.st0{fill:#C32032;}
	.st1{fill:#FFFFFF;}
</style>
<g>
	<g>
		<path class="st0" d="M336.39,293.32c-141.16,0-256,114.84-256,256c0,141.15,114.84,256,256,256c141.15,0,256-114.85,256-256
			C592.39,408.16,477.56,293.32,336.39,293.32z M393.74,553.89h-42.9v152.89h-63.56c0,0,0-83.54,0-152.89h-30.22v-54.04h30.22V464.9
			c0-25.03,11.89-64.15,64.15-64.15l47.1,0.18v52.45c0,0-28.62,0-34.19,0c-5.57,0-13.48,2.78-13.48,14.72v31.76h48.43L393.74,553.89
			z"/>
	</g>
</g>
<path class="st0" d="M959.61,293.32c-138.91,0-251.55,112.65-251.55,251.55S820.7,796.43,959.61,796.43s251.55-112.65,251.55-251.55
	S1098.51,293.32,959.61,293.32z"/>
<g id="Layer_2_00000141438329209642574610000013236809685323937937_">
	<g id="Color">
		<g id="_02.YouTube">
			<circle id="Background" class="st0" cx="1571.25" cy="549.32" r="256"/>
			<path id="Icon" class="st1" d="M1655.02,453.02h-167.55c-28.15,0-50.96,22.82-50.96,50.96c0,0.01,0,0.02,0,0.03v90.61
				c-0.02,28.15,22.78,50.98,50.93,51c0.01,0,0.02,0,0.03,0h167.55c28.15,0,50.96-22.82,50.96-50.96c0-0.01,0-0.02,0-0.03v-90.61
				c0.02-28.15-22.78-50.98-50.93-51C1655.05,453.02,1655.03,453.02,1655.02,453.02L1655.02,453.02z M1535.75,583.21v-67.78
				c0-3.29,3.56-5.33,6.4-3.68l58.27,33.89c2.82,1.64,2.82,5.72,0,7.37l-58.27,33.89C1539.31,588.55,1535.75,586.5,1535.75,583.21z"
				/>
		</g>
	</g>
</g>
<g>
	<path class="st1" d="M960.5,495.29c-32.24,0-58.48,26.23-58.48,58.47c0,32.24,26.23,58.47,58.48,58.47
		c32.24,0,58.48-26.23,58.48-58.47C1018.98,521.53,992.75,495.29,960.5,495.29L960.5,495.29z"/>
	<path class="st1" d="M1032.8,400.18H888.2c-44.83,0-81.29,36.47-81.29,81.29v144.59c0,44.83,36.47,81.29,81.29,81.29h144.59
		c44.83,0,81.29-36.47,81.29-81.29V481.47C1114.09,436.65,1077.62,400.18,1032.8,400.18z M960.5,630.24
		c-42.17,0-76.48-34.31-76.48-76.47c0-42.17,34.31-76.47,76.48-76.47c42.17,0,76.48,34.31,76.48,76.47
		C1036.98,595.94,1002.67,630.24,960.5,630.24z M1052.42,474.58c-1.67,1.67-4,2.63-6.37,2.63c-2.36,0-4.69-0.96-6.37-2.63
		c-1.67-1.68-2.63-4-2.63-6.36c0-2.37,0.95-4.69,2.63-6.37c1.68-1.67,4-2.63,6.37-2.63c2.37,0,4.69,0.96,6.37,2.63
		c1.67,1.68,2.63,4,2.63,6.37C1055.05,470.59,1054.09,472.9,1052.42,474.58z"/>
</g>
</svg>
