<?xml version="1.0" encoding="utf-8"?>
<!-- Generator: Adobe Illustrator 28.0.0, SVG Export Plug-In . SVG Version: 6.00 Build 0)  -->
<svg version="1.1" id="Layer_1" xmlns="http://www.w3.org/2000/svg" xmlns:xlink="http://www.w3.org/1999/xlink" x="0px" y="0px"
	 viewBox="0 0 1920 1080" style="enable-background:new 0 0 1920 1080;" xml:space="preserve">
<style type="text/css">
	.st0{fill:#C32032;}
	.st1{fill:#FFFFFF;}
</style>
<path class="st0" d="M960,302.22c-138.91,0-251.55,112.65-251.55,251.55S821.09,805.32,960,805.32s251.55-112.65,251.55-251.55
	S1098.91,302.22,960,302.22z"/>
<g>
	<path class="st1" d="M960.9,504.19c-32.24,0-58.48,26.23-58.48,58.47s26.23,58.47,58.48,58.47s58.48-26.23,58.48-58.47
		S993.14,504.19,960.9,504.19L960.9,504.19z"/>
	<path class="st1" d="M1033.19,409.07H888.6c-44.83,0-81.29,36.47-81.29,81.29v144.59c0,44.83,36.47,81.29,81.29,81.29h144.59
		c44.83,0,81.29-36.47,81.29-81.29V490.37C1114.48,445.54,1078.01,409.07,1033.19,409.07z M960.9,639.14
		c-42.17,0-76.48-34.31-76.48-76.47s34.31-76.47,76.48-76.47c42.17,0,76.48,34.31,76.48,76.47S1003.06,639.14,960.9,639.14z
		 M1052.81,483.48c-1.67,1.67-4,2.63-6.37,2.63c-2.36,0-4.69-0.96-6.37-2.63c-1.67-1.68-2.63-4-2.63-6.36
		c0-2.37,0.95-4.69,2.63-6.37c1.68-1.67,4-2.63,6.37-2.63s4.69,0.96,6.37,2.63c1.67,1.68,2.63,4,2.63,6.37
		C1055.45,479.48,1054.49,481.8,1052.81,483.48z"/>
</g>
</svg>
